<mxfile host="app.diagrams.net" modified="2023-11-24T02:14:23.955Z" agent="Mozilla/5.0 (Windows NT 10.0; Win64; x64) AppleWebKit/537.36 (KHTML, like Gecko) Chrome/119.0.0.0 Safari/537.36" etag="uHFddmNyRXUp_BQVppIZ" version="22.1.3" type="gitlab">
  <diagram id="C5RBs43oDa-KdzZeNtuy" name="Page-1">
    <mxGraphModel dx="1416" dy="731" grid="1" gridSize="10" guides="1" tooltips="1" connect="1" arrows="1" fold="1" page="1" pageScale="1" pageWidth="827" pageHeight="1169" math="0" shadow="0">
      <root>
        <mxCell id="WIyWlLk6GJQsqaUBKTNV-0" />
        <mxCell id="WIyWlLk6GJQsqaUBKTNV-1" parent="WIyWlLk6GJQsqaUBKTNV-0" />
        <mxCell id="oMMu-6dqaZtJerd-6p4M-1" style="edgeStyle=orthogonalEdgeStyle;rounded=0;orthogonalLoop=1;jettySize=auto;html=1;" edge="1" parent="WIyWlLk6GJQsqaUBKTNV-1" source="oMMu-6dqaZtJerd-6p4M-0">
          <mxGeometry relative="1" as="geometry">
            <mxPoint x="300" y="160" as="targetPoint" />
          </mxGeometry>
        </mxCell>
        <mxCell id="oMMu-6dqaZtJerd-6p4M-0" value="System Info Welcome Page" style="rounded=1;whiteSpace=wrap;html=1;" vertex="1" parent="WIyWlLk6GJQsqaUBKTNV-1">
          <mxGeometry x="50" y="120" width="200" height="80" as="geometry" />
        </mxCell>
        <mxCell id="oMMu-6dqaZtJerd-6p4M-9" style="edgeStyle=orthogonalEdgeStyle;rounded=0;orthogonalLoop=1;jettySize=auto;html=1;exitX=0.5;exitY=1;exitDx=0;exitDy=0;entryX=0.5;entryY=0;entryDx=0;entryDy=0;" edge="1" parent="WIyWlLk6GJQsqaUBKTNV-1" source="oMMu-6dqaZtJerd-6p4M-2" target="oMMu-6dqaZtJerd-6p4M-8">
          <mxGeometry relative="1" as="geometry" />
        </mxCell>
        <mxCell id="oMMu-6dqaZtJerd-6p4M-2" value="Login Page" style="rounded=1;whiteSpace=wrap;html=1;" vertex="1" parent="WIyWlLk6GJQsqaUBKTNV-1">
          <mxGeometry x="300" y="120" width="200" height="80" as="geometry" />
        </mxCell>
        <mxCell id="oMMu-6dqaZtJerd-6p4M-3" value="Overview Page" style="rounded=1;whiteSpace=wrap;html=1;" vertex="1" parent="WIyWlLk6GJQsqaUBKTNV-1">
          <mxGeometry x="530" y="370" width="160" height="40" as="geometry" />
        </mxCell>
        <mxCell id="oMMu-6dqaZtJerd-6p4M-4" value="Charts Page" style="rounded=1;whiteSpace=wrap;html=1;" vertex="1" parent="WIyWlLk6GJQsqaUBKTNV-1">
          <mxGeometry x="530" y="430" width="160" height="40" as="geometry" />
        </mxCell>
        <mxCell id="oMMu-6dqaZtJerd-6p4M-10" style="edgeStyle=orthogonalEdgeStyle;rounded=0;orthogonalLoop=1;jettySize=auto;html=1;exitX=0.5;exitY=1;exitDx=0;exitDy=0;entryX=0;entryY=0.5;entryDx=0;entryDy=0;" edge="1" parent="WIyWlLk6GJQsqaUBKTNV-1" source="oMMu-6dqaZtJerd-6p4M-8" target="oMMu-6dqaZtJerd-6p4M-3">
          <mxGeometry relative="1" as="geometry" />
        </mxCell>
        <mxCell id="oMMu-6dqaZtJerd-6p4M-11" style="edgeStyle=orthogonalEdgeStyle;rounded=0;orthogonalLoop=1;jettySize=auto;html=1;exitX=0.5;exitY=1;exitDx=0;exitDy=0;entryX=0;entryY=0.5;entryDx=0;entryDy=0;" edge="1" parent="WIyWlLk6GJQsqaUBKTNV-1" source="oMMu-6dqaZtJerd-6p4M-8" target="oMMu-6dqaZtJerd-6p4M-4">
          <mxGeometry relative="1" as="geometry" />
        </mxCell>
        <mxCell id="oMMu-6dqaZtJerd-6p4M-8" value="Is the user identity verified?" style="rhombus;whiteSpace=wrap;html=1;shadow=0;fontFamily=Helvetica;fontSize=12;align=center;strokeWidth=1;spacing=6;spacingTop=-4;" vertex="1" parent="WIyWlLk6GJQsqaUBKTNV-1">
          <mxGeometry x="330" y="240" width="140" height="130" as="geometry" />
        </mxCell>
        <mxCell id="oMMu-6dqaZtJerd-6p4M-14" style="edgeStyle=orthogonalEdgeStyle;rounded=0;orthogonalLoop=1;jettySize=auto;html=1;exitX=0.5;exitY=1;exitDx=0;exitDy=0;entryX=0.04;entryY=1.025;entryDx=0;entryDy=0;entryPerimeter=0;" edge="1" parent="WIyWlLk6GJQsqaUBKTNV-1" source="oMMu-6dqaZtJerd-6p4M-8" target="oMMu-6dqaZtJerd-6p4M-2">
          <mxGeometry relative="1" as="geometry" />
        </mxCell>
        <mxCell id="oMMu-6dqaZtJerd-6p4M-16" value="Yes" style="text;html=1;strokeColor=none;fillColor=none;align=center;verticalAlign=middle;whiteSpace=wrap;rounded=0;" vertex="1" parent="WIyWlLk6GJQsqaUBKTNV-1">
          <mxGeometry x="430" y="360" width="60" height="30" as="geometry" />
        </mxCell>
        <mxCell id="oMMu-6dqaZtJerd-6p4M-17" value="Yes" style="text;html=1;strokeColor=none;fillColor=none;align=center;verticalAlign=middle;whiteSpace=wrap;rounded=0;" vertex="1" parent="WIyWlLk6GJQsqaUBKTNV-1">
          <mxGeometry x="430" y="420" width="60" height="30" as="geometry" />
        </mxCell>
        <mxCell id="oMMu-6dqaZtJerd-6p4M-18" value="No" style="text;html=1;strokeColor=none;fillColor=none;align=center;verticalAlign=middle;whiteSpace=wrap;rounded=0;" vertex="1" parent="WIyWlLk6GJQsqaUBKTNV-1">
          <mxGeometry x="320" y="360" width="60" height="30" as="geometry" />
        </mxCell>
      </root>
    </mxGraphModel>
  </diagram>
</mxfile>
